<svg xmlns="http://www.w3.org/2000/svg" x="0px" y="0px"
width="64" height="64"
viewBox="0 0 172 172"
style=" fill:#000000;"><g fill="none" fill-rule="nonzero" stroke="none" stroke-width="1" stroke-linecap="butt" stroke-linejoin="miter" stroke-miterlimit="10" stroke-dasharray="" stroke-dashoffset="0" font-family="none" font-weight="none" font-size="none" text-anchor="none" style="mix-blend-mode: normal"><path d="M0,172v-172h172v172z" fill="none"></path><g fill="#ffffff"><path d="M80.625,10.75c-39.18106,0 -69.875,12.986 -69.875,29.5625v80.625c0,16.58187 30.69125,29.5625 69.875,29.5625c16.34,0 31.22875,-2.25624 43,-6.09936v19.53686c0,1.47813 1.20938,2.6875 2.6875,2.6875h16.125c1.47813,0 2.6875,-1.20937 2.6875,-2.6875v-33.83521l6.15185,6.18335c1.04813,1.04812 2.77317,1.04812 3.82129,0l10.75,-10.75c1.04812,-1.04812 1.04812,-2.77317 0,-3.82129l-15.34815,-15.34289v-66.05896c0,-16.5765 -30.69394,-29.5625 -69.875,-29.5625zM80.625,16.125c38.58175,0 64.5,12.50763 64.5,24.1875c0,11.67988 -25.91825,24.1875 -64.5,24.1875c-38.58175,0 -64.5,-12.50762 -64.5,-24.1875c0,-11.67987 25.91825,-24.1875 64.5,-24.1875zM83.64844,21.52625c-1.462,0 -2.66062,1.17032 -2.6875,2.63501c-0.02688,1.48619 1.1542,2.71312 2.63501,2.73999c2.537,0.04569 5.09571,0.15612 7.60583,0.32544c0.06181,0.00538 0.12459,0.00525 0.18371,0.00525c1.40019,0 2.5855,-1.09003 2.68225,-2.50903c0.09944,-1.48081 -1.02297,-2.76128 -2.50379,-2.86072c-2.59613,-0.17469 -5.24004,-0.28756 -7.86304,-0.33594zM71.56518,21.7467c-8.48175,0.473 -16.56159,1.62132 -23.3529,3.32788c-1.4405,0.36013 -2.31276,1.82708 -1.95264,3.26489c0.30906,1.22281 1.40476,2.03137 2.60876,2.03137c0.21769,0 0.43844,-0.02499 0.65613,-0.07874c6.46881,-1.62325 14.19403,-2.72147 22.33984,-3.17566c1.4835,-0.08331 2.61603,-1.35366 2.53003,-2.83447c-0.08062,-1.48081 -1.36723,-2.62128 -2.82923,-2.53528zM16.125,51.89185c10.449,10.664 35.07994,17.98315 64.5,17.98315c29.42006,0 54.051,-7.31915 64.5,-17.98315v15.29565c0,11.67987 -25.91825,24.1875 -64.5,24.1875c-38.58175,0 -64.5,-12.50763 -64.5,-24.1875zM16.125,78.76685c10.449,10.664 35.07994,17.98315 64.5,17.98315c29.42006,0 54.051,-7.31915 64.5,-17.98315v22.22961l-8.83935,-8.84461c-1.04813,-1.04812 -2.77317,-1.04812 -3.82129,0l-22.27685,22.28211v-1.29126c0,-1.4835 -1.20131,-2.6875 -2.6875,-2.6875c-1.48619,0 -2.6875,1.204 -2.6875,2.6875v5.375c0,0.37894 0.08071,0.74037 0.22046,1.06555l-2.1311,2.1311c-1.04812,1.04813 -1.04812,2.77317 0,3.82129l10.75,10.75c1.04813,1.04812 2.77317,1.04812 3.82129,0l6.15185,-6.18335v8.68189c-10.99188,3.84312 -25.71937,6.34082 -43,6.34082c-38.5925,0 -64.5,-12.49687 -64.5,-24.1875v-15.35339c8.63494,8.8795 27.0832,15.53888 50.67407,17.47925c0.07525,0.00538 0.15314,0.0105 0.22571,0.0105c1.38675,0 2.56144,-1.06417 2.677,-2.46704c0.12094,-1.47812 -0.98098,-2.77908 -2.46179,-2.90271c-29.14056,-2.39456 -51.11499,-12.55835 -51.11499,-23.6416zM134.375,97.85229l25.77271,25.77271l-6.96021,6.96021l-8.83935,-8.87085c-0.77937,-0.7525 -1.93983,-0.99164 -2.9342,-0.56164c-1.02125,0.40313 -1.66394,1.39729 -1.66394,2.47229v37.625h-10.75v-37.625c0,-1.075 -0.64269,-2.06917 -1.66394,-2.47229c-0.99437,-0.43 -2.15483,-0.19085 -2.9342,0.56164l-8.83935,8.87085l-6.96021,-6.96021zM94.0625,112.3396c-1.48619,0 -2.6875,1.204 -2.6875,2.6875v5.375c0,1.4835 1.20131,2.6875 2.6875,2.6875c1.48619,0 2.6875,-1.204 2.6875,-2.6875v-5.375c0,-1.4835 -1.20131,-2.6875 -2.6875,-2.6875zM80.625,112.875c-1.48619,0 -2.6875,1.204 -2.6875,2.6875v5.375c0,1.4835 1.20131,2.6875 2.6875,2.6875c1.48619,0 2.6875,-1.204 2.6875,-2.6875v-5.375c0,-1.4835 -1.20131,-2.6875 -2.6875,-2.6875z"></path></g></g></svg>