<svg xmlns="http://www.w3.org/2000/svg" x="0px" y="0px"
width="32" height="32"
viewBox="0 0 172 172"
style=" fill:#000000;"><g fill="none" fill-rule="nonzero" stroke="none" stroke-width="1" stroke-linecap="butt" stroke-linejoin="miter" stroke-miterlimit="10" stroke-dasharray="" stroke-dashoffset="0" font-family="none" font-weight="none" font-size="none" text-anchor="none" style="mix-blend-mode: normal"><path d="M0,172v-172h172v172z" fill="none"></path><g fill="#ffffff"><path d="M83.81641,21.5l-1.67969,1.51172l-26.53906,26.70703l-5.87891,5.87891l-26.70703,26.53906l-1.51172,1.67969v55.42969l4.87109,0.50391l118.25,10.75l6.38281,0.50391l-0.50391,-6.38281l-10.75,-118.25l-0.50391,-4.87109zM94.73438,32.25h26.53906l-17.63672,17.63672zM84.48828,36.11328l8.56641,16.79688l-23.34766,-2.01562zM130.17578,38.80078l6.88672,78.10547l-28.38672,-56.60547zM60.97266,60.97266l29.05859,2.51953l-26.53906,26.53906zM100.61328,68.36328l32.41797,64.66797l-64.66797,-32.41797zM50.89453,69.70703l2.01563,23.34766l-16.79687,-8.56641zM32.25,94.73438l17.63672,8.90234l-17.63672,17.63672zM60.30078,108.67578l56.77344,28.38672l-78.27344,-6.88672z"></path></g></g></svg>