<svg xmlns="http://www.w3.org/2000/svg" x="0px" y="0px"
width="50" height="50"
viewBox="0 0 172 172"
style=" fill:#000000;"><g fill="none" fill-rule="nonzero" stroke="none" stroke-width="1" stroke-linecap="butt" stroke-linejoin="miter" stroke-miterlimit="10" stroke-dasharray="" stroke-dashoffset="0" font-family="none" font-weight="none" font-size="none" text-anchor="none" style="mix-blend-mode: normal"><path d="M0,172v-172h172v172z" fill="none"></path><g fill="#ffffff"><path d="M96.6425,0.1075c-11.03219,0 -22.07781,2.44563 -32.035,7.095c-1.51844,0.71219 -2.2575,2.365 -1.8275,3.9775c0.43,1.6125 1.88125,2.74125 3.5475,2.58c0.08063,-0.01344 1.20938,-0.1075 3.1175,-0.1075c8.29094,0 37.35625,1.935 62.35,26.66c29.68344,29.36094 26.48531,64.88969 26.445,65.2525c-0.16125,1.66625 0.95406,3.21156 2.58,3.655c0.29563,0.08063 0.56438,0.215 0.86,0.215c1.31688,0 2.53969,-0.80625 3.1175,-2.0425c11.35469,-24.60406 8.47906,-53.27969 -6.5575,-75.035l6.235,-6.235c1.34375,-1.34375 1.34375,-3.49375 0,-4.8375l-13.76,-13.76c-1.29,-1.29 -3.5475,-1.29 -4.8375,0l-6.1275,6.1275c-12.51031,-8.815 -27.45281,-13.545 -43.1075,-13.545zM116.745,36.6575l-115.7775,115.67c-1.34375,1.34375 -1.34375,3.60125 0,4.945l13.76,13.76c0.67188,0.67188 1.58563,0.9675 2.4725,0.9675c0.88688,0 1.80063,-0.29562 2.4725,-0.9675l115.7775,-115.885c-2.4725,-3.35937 -5.21375,-6.74562 -8.4925,-9.9975c-3.3325,-3.29219 -6.81281,-6.02 -10.2125,-8.4925z"></path></g></g></svg>