<svg xmlns="http://www.w3.org/2000/svg" x="0px" y="0px"
width="50" height="50"
viewBox="0 0 172 172"
style=" fill:#000000;"><g fill="none" fill-rule="nonzero" stroke="none" stroke-width="1" stroke-linecap="butt" stroke-linejoin="miter" stroke-miterlimit="10" stroke-dasharray="" stroke-dashoffset="0" font-family="none" font-weight="none" font-size="none" text-anchor="none" style="mix-blend-mode: normal"><path d="M0,172v-172h172v172z" fill="none"></path><g fill="#ffffff"><path d="M85.94625,13.71297c-0.16665,0.00361 -0.33282,0.01933 -0.49719,0.04703h-68.24906c-1.89978,0.00019 -3.43981,1.54022 -3.44,3.44v44.14219c-0.0614,0.37149 -0.0614,0.75054 0,1.12203v47.03797c-0.0614,0.37149 -0.0614,0.75054 0,1.12203v44.17578c0.00019,1.89978 1.54022,3.43981 3.44,3.44h68.22219c0.37149,0.0614 0.75054,0.0614 1.12203,0h68.25578c1.89978,-0.00019 3.43981,-1.54022 3.44,-3.44v-44.14219c0.0614,-0.37149 0.0614,-0.75054 0,-1.12203v-47.03797c0.0614,-0.37149 0.0614,-0.75054 0,-1.12203v-44.17578c-0.00019,-1.89978 -1.54022,-3.43981 -3.44,-3.44h-68.26922c-0.19315,-0.03228 -0.3887,-0.04802 -0.58453,-0.04703zM20.64,20.64h61.92v37.84h-61.92zM89.44,20.64h61.92v37.84h-61.92zM20.64,65.36h61.92v41.28h-61.92zM89.44,65.36h61.92v41.28h-61.92zM20.64,113.52h61.92v37.84h-61.92zM89.44,113.52h61.92v37.84h-61.92z"></path></g></g></svg>