<svg xmlns="http://www.w3.org/2000/svg" x="0px" y="0px"
width="50" height="50"
viewBox="0 0 172 172"
style=" fill:#000000;"><g fill="none" fill-rule="nonzero" stroke="none" stroke-width="1" stroke-linecap="butt" stroke-linejoin="miter" stroke-miterlimit="10" stroke-dasharray="" stroke-dashoffset="0" font-family="none" font-weight="none" font-size="none" text-anchor="none" style="mix-blend-mode: normal"><path d="M0,172v-172h172v172z" fill="none"></path><g fill="#ffffff"><path d="M24.08,13.76c-5.6587,0 -10.32,4.6613 -10.32,10.32v123.84c0,5.6587 4.6613,10.32 10.32,10.32h123.84c5.6587,0 10.32,-4.6613 10.32,-10.32v-123.84c0,-5.6587 -4.6613,-10.32 -10.32,-10.32zM24.08,20.64h20.64v24.08h-24.08v-20.64c0,-1.9437 1.4963,-3.44 3.44,-3.44zM51.6,20.64h96.32c1.9437,0 3.44,1.4963 3.44,3.44v20.64h-99.76zM20.64,51.6h24.08v99.76h-20.64c-1.9437,0 -3.44,-1.4963 -3.44,-3.44zM51.6,51.6h99.76v96.32c0,1.9437 -1.4963,3.44 -3.44,3.44h-96.32zM120.4,60.49563l-19.63219,19.63219l4.86437,4.86437l11.32781,-11.32781v39.85563c0,1.9437 -1.4963,3.44 -3.44,3.44h-39.85563l11.32781,-11.32781l-4.86437,-4.86437l-19.63219,19.63219l19.63219,19.63219l4.86437,-4.86437l-11.32781,-11.32781h39.85563c5.6587,0 10.32,-4.6613 10.32,-10.32v-39.85563l11.32781,11.32781l4.86437,-4.86437z"></path></g></g></svg>